# xmcd CD database file
#
# Track frame offsets:
#	150
#	16697
#	33405
#	47832
#	64605
#	82880
#	97762
#	113450
#	130055
#	147710
#
# Disc length: 2168 seconds
#
# Revision: 0
# Processed by: cddbd v1.5.2PL0 Copyright (c) Steve Scherf et al.
# Submitted via: CDex 1.91
#
DISCID=7308760a
DTITLE=El Gran Combo - 12 Aniversario
DYEAR=2008
DGENRE=Salsa
TTITLE0=El son de santurce
TTITLE1=Laa salsa de hoy
TTITLE2=El cantantedel amor
TTITLE3=La melena
TTITLE4=No quiero llanto
TTITLE5=Mi merenghue con salsa
TTITLE6=A veces me preguntan
TTITLE7=Tremendo cumban
TTITLE8=Dugu-dugu con saus
TTITLE9=El gordito de oro
EXTD=YEAR: 2008
EXTT0=
EXTT1=
EXTT2=
EXTT3=
EXTT4=
EXTT5=
EXTT6=
EXTT7=
EXTT8=
EXTT9=
PLAYORDER=
